<?xml version="1.0" standalone="no"?>
<!DOCTYPE svg PUBLIC "-//W3C//DTD SVG 20010904//EN"
 "http://www.w3.org/TR/2001/REC-SVG-20010904/DTD/svg10.dtd">
<svg version="1.0" xmlns="http://www.w3.org/2000/svg"
 width="1024.000000pt" height="204.000000pt" viewBox="0 0 1024.000000 204.000000"
 preserveAspectRatio="xMidYMid meet">

<g transform="translate(0.000000,204.000000) scale(0.100000,-0.100000)"
fill="#000000" stroke="none">
<path d="M0 1020 l0 -1020 5120 0 5120 0 0 1020 0 1020 -88 0 -89 0 -6 -212
c-4 -116 -7 -312 -7 -435 l0 -223 -25 0 c-14 0 -25 -6 -25 -12 0 -7 -19 -21
-42 -31 -37 -15 -44 -15 -64 -2 -41 26 -53 19 -57 -32 -2 -27 -4 98 -5 277 -1
179 -5 403 -9 498 l-6 172 -4909 0 -4908 0 0 -1020z m6630 999 c236 -13 282
-19 309 -41 13 -10 32 -16 41 -13 11 3 20 -1 23 -10 9 -21 -6 -23 -298 -35
-491 -21 -1873 -9 -1958 16 -14 5 -16 9 -6 20 6 7 15 12 19 9 5 -3 10 0 12 6
3 10 105 29 253 48 84 11 1417 11 1605 0z m3037 -96 c-4 -38 -9 -207 -13 -378
-3 -170 -10 -326 -14 -345 -5 -23 -8 -27 -9 -12 -1 12 -5 22 -11 22 -5 0 -11
-10 -11 -22 -1 -17 -2 -19 -6 -5 -3 11 -14 17 -34 17 -17 0 -52 7 -80 16 -38
13 -49 21 -50 38 -1 19 -2 19 -9 -4 -7 -21 -8 -22 -9 -5 -7 85 -18 676 -14
702 l5 32 87 4 c47 1 106 4 130 5 l44 2 -6 -67z m-7105 -292 c123 -42 203 -87
273 -153 l60 -58 -24 -18 c-25 -20 -24 -16 -5 -137 l5 -30 -17 30 c-10 17 -17
44 -16 60 3 41 -29 83 -108 143 -85 64 -126 85 -153 77 -15 -4 -18 -3 -9 3 23
16 -14 23 -149 29 -109 4 -137 2 -205 -17 -113 -30 -133 -39 -195 -84 -31 -23
-66 -48 -78 -56 -29 -19 -108 -124 -126 -166 -7 -17 -19 -57 -26 -88 -11 -52
-14 -56 -41 -56 -35 0 -36 17 -8 101 41 121 77 182 152 257 182 184 432 245
670 163z m-176 -131 c8 0 14 5 14 10 0 15 36 12 52 -4 8 -7 25 -17 38 -21 60
-19 167 -80 213 -123 45 -43 147 -182 147 -203 0 -19 -27 5 -60 53 -110 162
-235 243 -402 261 -88 9 -97 8 -173 -17 -147 -50 -280 -172 -325 -298 -5 -16
-14 -28 -20 -28 -13 0 -13 1 10 62 19 52 80 152 80 133 0 -5 24 13 53 41 28
28 66 60 83 72 39 26 120 59 159 63 17 2 33 8 37 14 5 6 8 5 8 -2 0 -23 47
-15 55 10 l8 22 4 -22 c2 -13 11 -23 19 -23z m4011 25 c27 -8 58 -24 68 -35
15 -17 16 -24 5 -50 -17 -40 -24 -44 -59 -26 -84 44 -192 38 -231 -12 -45 -56
-6 -93 123 -117 155 -28 207 -71 207 -168 0 -55 -16 -90 -57 -128 -52 -49 -92
-63 -178 -63 -94 0 -165 18 -200 50 -30 28 -31 35 -7 64 l18 23 58 -22 c39
-15 80 -21 132 -21 73 0 77 1 110 34 36 36 43 70 22 99 -8 10 -56 27 -123 42
-166 39 -223 88 -212 182 6 54 27 86 77 119 67 45 158 55 247 29z m1183 -16
c26 -11 61 -34 76 -51 l29 -30 -24 -19 c-30 -24 -38 -24 -103 6 -62 29 -86 30
-155 10 -68 -20 -119 -76 -129 -140 -10 -72 0 -133 33 -178 37 -53 75 -75 145
-83 47 -5 64 -3 102 15 51 25 104 25 120 -2 16 -25 -2 -48 -64 -79 -136 -70
-321 -11 -396 125 -26 47 -29 62 -29 143 0 81 3 97 30 150 24 47 43 67 93 101
98 66 173 75 272 32z m-3340 -6 c0 -70 -4 -73 -96 -73 l-84 0 0 -250 0 -250
-24 0 c-13 0 -32 -3 -41 -6 -14 -6 -16 17 -14 252 l1 259 -96 3 -96 3 0 42 0
42 225 3 225 3 0 -28z m417 0 c46 -21 101 -86 109 -127 11 -64 -4 -124 -43
-167 -20 -22 -46 -42 -59 -45 -13 -3 -24 -9 -24 -11 0 -9 59 -105 95 -157 19
-26 35 -52 35 -57 0 -5 -22 -9 -50 -9 -27 0 -50 4 -50 8 0 5 -25 49 -55 99
-30 50 -55 96 -55 102 0 7 -26 11 -70 11 l-70 0 0 -110 0 -110 -46 0 -45 0 5
298 c3 163 5 298 6 298 0 1 64 -1 143 -4 96 -3 153 -9 174 -19z m479 -10 c34
-80 224 -553 224 -558 0 -4 -21 -5 -47 -3 -46 3 -46 3 -64 54 -33 100 -24 95
-157 92 l-117 -3 -31 -65 c-17 -36 -36 -70 -42 -76 -12 -14 -72 -6 -72 10 0 6
14 43 31 81 16 39 52 131 80 205 27 74 60 160 73 190 13 30 27 67 30 83 5 23
11 27 41 27 31 0 37 -4 51 -37z m492 -88 c51 -66 123 -167 160 -225 l67 -104
3 227 2 227 34 0 34 0 6 -57 c14 -145 18 -275 11 -403 l-7 -140 -38 0 c-36 0
-41 4 -97 83 -32 45 -73 106 -91 135 -44 73 -151 212 -163 212 -5 0 -9 -85 -9
-199 0 -110 -3 -206 -6 -215 -4 -10 -18 -16 -40 -16 l-34 0 0 301 0 300 37 -3
c35 -3 44 -11 131 -123z m1266 103 c8 -13 18 -36 22 -53 4 -16 43 -108 86
-203 73 -160 112 -279 100 -309 -4 -14 -60 -17 -78 -5 -6 4 -14 23 -18 42 -3
19 -15 49 -25 67 l-20 32 -113 3 c-130 3 -128 5 -168 -92 -25 -60 -25 -60 -67
-60 -35 0 -43 3 -43 18 0 28 128 330 198 469 18 34 32 69 32 78 0 16 31 33 62
34 10 1 24 -9 32 -21z m1294 -20 l-3 -43 -95 -3 -95 -3 3 -254 3 -255 -46 0
-45 0 0 253 0 252 -85 -3 -85 -3 0 34 c0 20 -3 42 -6 51 -5 14 18 16 226 16
l231 0 -3 -42z m176 -20 c3 -35 3 -170 0 -300 l-7 -238 -44 0 -43 0 0 293 c0
162 3 297 7 300 3 4 23 7 43 7 l37 0 7 -62z m511 47 c54 -22 140 -109 166
-168 17 -40 23 -70 22 -127 -1 -107 -35 -178 -108 -226 -170 -113 -355 -73
-438 95 -28 57 -32 75 -31 141 1 55 7 89 24 128 27 63 102 134 163 155 55 20
158 21 202 2z m-7702 -17 c18 -28 1 -48 -43 -48 -22 0 -40 2 -40 4 0 2 -3 11
-6 19 -14 38 67 61 89 25z m113 -68 l77 -90 121 -2 121 -2 -115 -5 -115 -6
-87 90 c-78 81 -97 105 -84 105 3 0 39 -40 82 -90z m1064 0 c-54 -11 -85 -26
-121 -58 -19 -16 -62 -47 -96 -70 -33 -23 -71 -54 -82 -68 -35 -44 -36 -19 -2
29 65 90 210 176 296 175 l40 0 -35 -8z m-865 -10 c3 -5 1 -10 -4 -10 -6 0
-11 5 -11 10 0 6 2 10 4 10 3 0 8 -4 11 -10z m1060 -41 c61 -29 155 -102 155
-121 0 -6 -7 -5 -17 3 -9 8 -5 -2 10 -22 15 -20 27 -40 27 -46 0 -6 11 -22 25
-37 17 -18 20 -26 10 -26 -14 0 -41 35 -90 115 -36 58 -58 76 -147 121 -49 24
-88 46 -88 49 0 10 55 -7 115 -36z m245 -10 c15 -28 5 -23 -15 7 -9 15 -12 23
-6 20 6 -4 16 -16 21 -27z m-1091 -15 c2 -2 -36 -3 -85 -2 -86 1 -87 2 -29 8
54 6 103 3 114 -6z m701 -44 c5 -43 6 -45 47 -52 78 -13 133 -57 119 -94 -8
-20 -93 -19 -114 2 -13 14 -30 16 -95 11 -43 -4 -82 -9 -88 -12 -5 -4 -9 -24
-9 -46 0 -53 24 -75 91 -84 224 -29 298 -118 207 -251 -29 -43 -67 -58 -123
-51 l-45 7 0 -55 0 -55 -35 0 -35 0 0 56 0 55 -47 -1 c-86 -3 -92 -1 -108 30
-14 28 -14 30 7 41 13 7 85 15 166 18 111 5 145 10 152 21 27 43 -6 64 -125
79 -153 20 -206 62 -221 174 -11 81 50 147 135 147 l41 0 0 56 0 56 38 -4 c36
-3 37 -4 42 -48z m664 -53 c50 -51 145 -142 211 -203 119 -110 120 -111 103
-135 -19 -29 -181 -194 -340 -347 l-118 -113 0 109 c0 108 0 109 -23 105 -19
-4 -22 -11 -22 -43 0 -21 -4 -42 -9 -47 -14 -14 -285 -16 -318 -2 -16 7 -45
12 -64 11 -28 -1 -34 2 -34 19 0 11 -4 17 -10 14 -5 -3 -10 2 -10 12 0 14 13
21 53 31 62 14 89 33 130 90 27 36 32 54 35 114 l4 70 -55 53 c-38 35 -70 56
-101 65 -25 7 -46 15 -46 19 0 3 105 5 234 3 l233 -3 6 53 c4 29 7 87 7 129 0
119 13 119 134 -4z m-1021 26 c-25 -32 -52 -62 -59 -68 -7 -5 -20 -27 -29 -47
-8 -21 -20 -38 -25 -38 -27 0 60 132 118 180 20 16 38 30 39 30 2 0 -18 -26
-44 -57z m-340 30 c-13 -2 -35 -2 -50 0 -16 2 -5 4 22 4 28 0 40 -2 28 -4z
m-643 -20 c0 -5 -53 -9 -118 -9 -66 -1 -108 2 -97 7 26 10 215 11 215 2z m336
-37 l16 -25 146 5 c103 3 143 1 136 -6 -9 -9 -92 -12 -284 -11 -8 1 -61 -2
-117 -5 l-103 -6 0 29 c0 16 3 33 7 36 3 4 46 7 94 7 83 0 90 -2 105 -24z
m-556 -82 c0 -28 -3 -35 -17 -32 -22 4 -29 34 -13 53 20 24 30 17 30 -21z
m1156 -22 c-18 -16 -18 -16 -6 6 6 13 14 21 18 18 3 -4 -2 -14 -12 -24z m-581
-8 c0 -10 -8 -20 -17 -22 -18 -3 -26 27 -11 42 12 11 28 0 28 -20z m235 6 c0
-5 -21 -11 -47 -12 -157 -5 -163 -5 -163 9 0 10 24 13 105 13 63 0 105 -4 105
-10z m-388 -54 c5 -21 6 -41 4 -43 -2 -3 -67 -1 -143 4 l-138 8 0 30 0 30 80
6 c44 3 105 5 135 5 l54 -1 8 -39z m8375 -13 c-3 -10 -5 -2 -5 17 0 19 2 27 5
18 2 -10 2 -26 0 -35z m-7741 -3 l181 0 7 -39 c8 -50 65 -107 126 -125 37 -11
46 -18 48 -39 3 -25 1 -27 -35 -27 -50 -1 -119 -33 -128 -60 -4 -12 -4 -32 -1
-44 6 -23 5 -23 -131 -29 -171 -9 -386 -9 -407 -1 -9 4 -16 18 -16 34 0 27 1
27 83 33 45 4 118 7 162 8 93 1 194 14 155 20 -14 2 -108 4 -210 4 l-185 0 3
30 c2 16 5 31 7 33 2 2 86 8 187 12 260 13 348 21 341 33 -6 9 -224 6 -638 -9
-163 -6 -215 1 -215 30 0 28 28 35 173 42 154 7 212 24 85 24 -85 0 -118 16
-118 57 l0 26 173 -6 c94 -4 254 -7 353 -7z m-996 -85 c0 -27 -91 -48 -105
-25 -16 25 5 40 55 40 38 0 50 -4 50 -15z m208 -24 c8 -5 12 -22 10 -42 -2
-26 -8 -35 -28 -39 -41 -10 -60 -1 -60 31 0 41 46 71 78 50z m234 -155 c19
-29 31 -36 68 -41 53 -7 64 -13 73 -39 7 -18 3 -19 -75 -12 -46 4 -121 11
-168 16 -47 5 -183 9 -302 9 l-218 1 0 45 0 45 208 3 c114 1 249 3 299 5 l93
2 22 -34z m168 -81 c14 -19 14 -19 -2 -6 -10 7 -18 18 -18 24 0 6 1 8 3 6 1
-2 9 -13 17 -24z m-290 -40 c20 -24 8 -50 -24 -50 -39 0 -58 31 -32 51 25 18
40 18 56 -1z m1038 -69 c2 -23 -2 -42 -8 -46 -7 -4 -56 -6 -109 -4 -53 2 -252
5 -442 7 -190 2 -351 7 -357 11 -7 4 -12 22 -12 40 0 26 5 35 23 40 12 3 117
6 232 7 116 1 278 4 360 8 115 5 169 2 230 -9 l80 -16 3 -38z m-1258 34 c24
-24 24 -29 4 -58 -19 -27 -28 -27 -65 -1 -33 23 -38 53 -11 68 26 16 50 13 72
-9z m4175 -120 c0 -134 -10 -158 -42 -100 -10 17 -37 59 -60 93 l-43 61 0 -80
c0 -76 -11 -117 -26 -101 -4 4 -8 61 -9 127 -1 92 2 120 12 120 7 0 39 -34 72
-75 66 -83 71 -82 71 22 0 47 3 64 13 61 9 -4 12 -38 12 -128z m377 80 c18
-27 36 -50 40 -50 4 0 21 20 38 45 36 52 66 63 49 18 -6 -16 -24 -51 -40 -79
-19 -34 -29 -65 -29 -93 0 -35 -3 -41 -21 -41 -19 0 -21 4 -15 40 5 33 1 49
-28 102 -19 35 -37 73 -41 86 -11 39 13 24 47 -28z m486 17 c4 -29 -7 -33 -39
-17 -18 10 -19 6 -19 -95 0 -85 -3 -105 -15 -105 -11 0 -15 20 -17 98 l-3 97
-32 3 c-25 2 -33 8 -33 22 0 17 9 20 68 22 88 5 87 6 90 -25z m512 -90 c22
-59 40 -114 40 -122 0 -27 -20 -16 -37 20 -13 28 -22 35 -46 35 -38 0 -66 -16
-77 -46 -5 -13 -17 -24 -26 -24 -21 0 -14 29 33 135 19 44 39 91 44 104 14 34
22 21 69 -102z m544 107 c30 -29 20 -43 -20 -31 -29 9 -37 8 -45 -4 -14 -23
-12 -26 51 -69 69 -47 74 -65 29 -109 -37 -37 -86 -42 -114 -11 -23 25 -17 32
21 21 32 -9 70 4 78 26 8 21 0 31 -42 49 -74 30 -92 72 -49 111 38 35 68 41
91 17z m-2701 -64 c18 -38 35 -70 39 -70 3 0 20 21 37 48 51 80 63 94 71 85
12 -13 22 -230 11 -237 -16 -10 -21 9 -24 83 -1 39 -4 71 -7 71 -3 0 -19 -26
-36 -57 -17 -31 -36 -59 -42 -61 -7 -2 -18 9 -25 25 -7 15 -21 44 -32 63 l-20
35 -5 -75 c-4 -61 -8 -75 -22 -78 -16 -3 -18 5 -18 65 0 107 11 173 27 173 8
0 28 -30 46 -70z m445 45 c61 -51 66 -129 12 -183 -39 -39 -72 -47 -117 -26
-44 22 -73 67 -73 118 0 33 7 45 40 78 50 47 93 51 138 13z m582 4 c0 -20 -4
-21 -45 -15 l-45 7 0 -35 c0 -34 1 -35 42 -38 57 -4 62 -26 6 -30 -42 -3 -43
-4 -46 -40 l-3 -38 45 0 c40 0 46 -3 46 -20 0 -19 -5 -21 -62 -18 l-61 3 -4
123 -4 122 66 0 c60 0 65 -2 65 -21z m865 -9 c23 -45 19 -87 -10 -106 -23 -15
-24 -18 -10 -34 19 -21 32 -80 17 -80 -6 0 -24 23 -41 51 -25 39 -36 50 -54
47 -19 -3 -22 -8 -19 -45 2 -37 0 -43 -18 -43 -19 0 -20 6 -20 120 l0 120 70
0 c67 0 70 -1 85 -30z m440 22 c12 -8 86 -125 100 -157 6 -14 11 5 15 67 5 78
13 109 24 97 2 -2 5 -56 7 -119 4 -109 3 -115 -16 -118 -15 -2 -32 17 -70 75
l-50 78 -3 -82 c-2 -62 -6 -83 -16 -83 -11 0 -15 28 -18 118 -5 136 -3 146 27
124z m659 -64 c14 -40 26 -78 26 -85 0 -6 9 -28 21 -47 l21 -36 -22 0 c-15 0
-20 5 -17 14 9 22 -15 36 -72 43 l-51 6 -6 -32 c-6 -27 -11 -32 -33 -29 l-26
3 -3 113 c-3 96 -1 112 13 112 12 0 15 -14 15 -80 0 -44 4 -80 8 -80 20 0 39
30 61 98 13 39 27 72 31 72 4 0 19 -33 34 -72z m466 47 c0 -21 -5 -25 -30 -25
l-30 0 0 -95 c0 -78 -3 -95 -15 -95 -12 0 -15 18 -15 100 l0 100 -40 0 c-33 0
-40 3 -40 20 0 18 7 20 85 20 84 0 85 0 85 -25z m138 -104 c3 -120 2 -122 -18
-111 -18 10 -20 20 -20 119 0 59 3 111 7 115 21 20 28 -9 31 -123z m289 105
c16 -14 38 -43 48 -65 15 -35 16 -45 5 -71 -15 -36 -62 -75 -102 -85 -32 -8
-94 19 -113 49 -38 61 -21 137 38 175 43 28 89 27 124 -3z m248 -61 l60 -75 3
80 c2 62 6 80 17 80 12 0 15 -17 15 -84 0 -46 2 -96 5 -112 7 -35 -6 -57 -27
-49 -9 4 -34 35 -57 69 -63 98 -67 99 -74 10 -6 -80 -9 -90 -26 -80 -7 5 -9
49 -7 124 3 64 5 118 5 119 4 11 37 -20 86 -82z m-914 48 c7 -20 5 -23 -19
-23 -36 0 -52 -17 -52 -54 0 -38 26 -66 62 -66 16 0 28 -5 28 -13 0 -41 -76
-51 -110 -15 -29 31 -46 93 -34 126 11 31 70 74 98 70 10 -2 23 -13 27 -25z
m-6748 -65 l21 -28 -21 -27 c-24 -34 -58 -41 -84 -17 -39 35 -11 108 39 102
14 -2 34 -15 45 -30z m707 -30 l85 -2 -105 -5 -105 -6 -9 -51 -8 -51 -77 -7
c-42 -3 -89 -9 -106 -12 -21 -5 -27 -3 -20 4 6 6 28 12 50 15 22 2 -3 4 -55 5
-135 3 -143 6 -135 51 15 78 5 75 214 68 102 -4 224 -8 271 -9z m312 -22 c35
-13 83 -34 108 -47 64 -31 213 -76 298 -89 55 -9 90 -9 140 0 83 14 218 66
297 114 66 40 90 44 99 20 6 -16 -29 -52 -123 -127 -87 -70 -221 -111 -356
-110 -151 0 -280 52 -427 169 -133 107 -134 108 -36 70z m-164 7 c-10 -2 -28
-2 -40 0 -13 2 -5 4 17 4 22 1 32 -1 23 -4z m687 -3 l140 -1 -35 -18 c-19 -10
-58 -22 -85 -25 -56 -8 -219 10 -250 27 -18 11 -17 12 15 18 19 4 44 5 55 3
11 -2 83 -4 160 -4z m-700 -30 c40 -6 26 -8 -70 -9 -81 0 -115 2 -105 9 18 11
104 12 175 0z m-717 -49 c2 -12 -4 -31 -14 -42 -21 -23 -69 -25 -78 -3 -18 47
6 76 59 71 22 -2 31 -9 33 -26z m797 -12 c46 -8 44 -8 -20 -4 -38 3 -109 5
-157 5 -49 0 -88 3 -88 8 0 9 198 3 265 -9z m-107 -46 c-26 -2 -71 -2 -100 0
-29 2 -8 3 47 3 55 0 79 -1 53 -3z m-534 -19 c11 -29 6 -62 -10 -68 -23 -9
-34 2 -34 33 0 42 32 67 44 35z m644 9 c-10 -2 -26 -2 -35 0 -10 3 -2 5 17 5
19 0 27 -2 18 -5z m-218 -13 c10 -6 -28 -9 -115 -8 -121 2 -124 2 -50 8 129
10 149 10 165 0z m213 -17 c-29 -2 -78 -2 -110 0 -32 2 -8 3 52 3 61 0 87 -1
58 -3z m-28 -40 c-152 -8 -440 -7 -432 2 6 6 95 8 246 5 130 -2 214 -5 186 -7z
m268 -10 c-13 -2 -33 -2 -45 0 -13 2 -3 4 22 4 25 0 35 -2 23 -4z"/>
<path d="M4412 1333 l3 -98 94 -3 c113 -3 148 8 167 54 17 41 9 86 -22 119
-22 24 -28 25 -134 25 l-111 0 3 -97z"/>
<path d="M5080 1389 c0 -9 -18 -60 -40 -114 -22 -54 -37 -102 -33 -106 5 -4
48 -10 96 -14 l88 -7 -14 33 c-7 19 -29 72 -47 119 -34 88 -50 116 -50 89z"/>
<path d="M6812 1322 c-19 -48 -40 -103 -47 -122 l-13 -35 91 -5 c51 -3 94 -1
95 3 2 4 -15 57 -37 117 -23 60 -41 114 -41 120 0 30 -19 0 -48 -78z"/>
<path d="M8680 1413 c-92 -48 -128 -182 -76 -286 14 -29 40 -64 58 -77 28 -22
44 -25 110 -25 70 0 79 2 114 31 69 55 79 77 78 162 -1 87 -14 119 -69 172
-33 32 -41 35 -108 38 -55 2 -80 -1 -107 -15z"/>
<path d="M6475 551 c-10 -23 -16 -43 -14 -45 2 -2 16 -2 32 1 30 6 37 36 14
67 -12 16 -15 14 -32 -23z"/>
<path d="M4720 600 c-29 -29 -28 -99 3 -128 32 -30 60 -28 96 9 37 36 40 75
10 113 -26 33 -79 36 -109 6z"/>
<path d="M6177 613 c-4 -3 -7 -24 -7 -45 0 -39 0 -40 33 -33 48 11 67 23 67
45 0 11 -9 24 -19 30 -22 11 -64 13 -74 3z"/>
<path d="M7343 548 c-6 -24 -10 -44 -8 -46 2 -2 14 -2 27 0 22 3 23 5 15 46
-4 23 -11 42 -16 42 -4 0 -12 -19 -18 -42z"/>
<path d="M8162 604 c-49 -34 -47 -106 3 -138 35 -23 59 -20 94 13 76 71 -12
185 -97 125z"/>
<path d="M1945 456 c160 -109 265 -153 390 -163 96 -7 95 5 -2 16 l-68 8 81 2
c44 0 85 -4 90 -9 12 -12 147 21 204 50 52 28 104 75 96 88 -4 8 -16 2 -36
-16 -35 -34 -122 -78 -181 -91 -70 -17 -257 -13 -320 5 -29 9 -99 40 -155 70
-95 51 -142 70 -99 40z"/>
<path d="M2255 490 c28 -12 65 -12 65 0 0 6 -19 10 -42 9 -33 0 -38 -2 -23 -9z"/>
</g>
</svg>
